HIERARCHY
ROOT Hips
{
  OFFSET 7.91463 99.231 23.7306
  CHANNELS 6 Xposition Yposition Zposition Zrotation Xrotation Yrotation
  JOINT ToSpine
  {
    OFFSET -0.0105055 1.38907 -7.13956
    CHANNELS 3 Zrotation Xrotation Yrotation
    JOINT Spine
    {
      OFFSET 0.0105055 10 1
      CHANNELS 3 Zrotation Xrotation Yrotation
      JOINT Spine1
      {
        OFFSET 0 12 1.60637
        CHANNELS 3 Zrotation Xrotation Yrotation
        JOINT Neck
        {
          OFFSET 0 27 2.26658
          CHANNELS 3 Zrotation Xrotation Yrotation
          JOINT Head
          {
            OFFSET 0 9 2.12705
            CHANNELS 3 Zrotation Xrotation Yrotation
            End Site
            {
              OFFSET 0 11 2
            }
          }
        }
        JOINT LeftShoulder
        {
          OFFSET 8 19.6109 2.86452
          CHANNELS 3 Zrotation Xrotation Yrotation
          JOINT LeftArm
          {
            OFFSET 12 1 0.681055
            CHANNELS 3 Zrotation Xrotation Yrotation
            JOINT LeftForeArm
            {
              OFFSET 19 0 -1.52608
              CHANNELS 3 Zrotation Xrotation Yrotation
              JOINT LeftHand
              {
                OFFSET 23 0 0
                CHANNELS 3 Zrotation Xrotation Yrotation
                End Site
                {
                  OFFSET 10 0 0
                }
              }
            }
          }
        }
        JOINT RightShoulder
        {
          OFFSET -8 19.6109 2.86452
          CHANNELS 3 Zrotation Xrotation Yrotation
          JOINT RightArm
          {
            OFFSET -12 1 0.681055
            CHANNELS 3 Zrotation Xrotation Yrotation
            JOINT RightForeArm
            {
              OFFSET -19 0 -1.52608
              CHANNELS 3 Zrotation Xrotation Yrotation
              JOINT RightHand
              {
                OFFSET -23 0 0
                CHANNELS 3 Zrotation Xrotation Yrotation
                End Site
                {
                  OFFSET -10 0 0
                }
              }
            }
          }
        }
      }
    }
  }
  JOINT LeftUpLeg
  {
    OFFSET 9 -7.17245 0
    CHANNELS 3 Zrotation Xrotation Yrotation
    JOINT LeftLeg
    {
      OFFSET 0 -44.1113 0
      CHANNELS 3 Zrotation Xrotation Yrotation
      JOINT LeftFoot
      {
        OFFSET 0 -36.1829 0
        CHANNELS 3 Zrotation Xrotation Yrotation
        JOINT LeftToeBase
        {
          OFFSET 0 -4.84184 13
          CHANNELS 3 Zrotation Xrotation Yrotation
          End Site
          {
            OFFSET 0 1 6
          }
        }
      }
    }
  }
  JOINT RightUpLeg
  {
    OFFSET -9 -7.17245 0
    CHANNELS 3 Zrotation Xrotation Yrotation
    JOINT RightLeg
    {
      OFFSET 0 -44.0551 0
      CHANNELS 3 Zrotation Xrotation Yrotation
      JOINT RightFoot
      {
        OFFSET 0 -36.1469 0
        CHANNELS 3 Zrotation Xrotation Yrotation
        JOINT RightToeBase
        {
          OFFSET 0 -4.92256 13
          CHANNELS 3 Zrotation Xrotation Yrotation
          End Site
          {
            OFFSET 0 1 6
          }
        }
      }
    }
  }
}
MOTION
Frames:	17
Frame Time:	0.0333333
14.0949 96.0651 23.2941 9.18281 -4.60223 5.35443 0 0 0 1.51962 -7.75117 1.07637 -15.9196 12.4478 4.13789 6.32285 2.1265 -0.719475 2.90958 -6.13664 0.794061 -35.7923 3.77731 -5.49992 -29.8285 31.212 -15.2849 -7.9026 -20.9641 -6.67681 -10.8154 0.265809 -2.80289 25.784 5.9737 15.0438 52.4899 21.7131 7.27208 4.93934 -1.41688 9.49014 1.05133 0.034257 3.70689 -10.2951 1.51329 5.4251 -4.40326 18.6516 -13.5173 13.495 -13.6762 1.62571 0.0545141 1.20288 -0.530604 -16.9482 -4.82991 -7.58636 0.000137348 36.5452 -2.87779 -7.17213 -19.6749 -1.2454 4.12615 -15.655 -5.80374 
14.1811 95.9857 23.169 9.41421 -4.56722 5.4322 0 0 0 2.06172 -7.79482 1.1921 -17.1487 12.5671 4.58895 6.32898 2.25064 -0.604471 2.40052 -6.13489 1.00435 -35.9408 3.77155 -5.45381 -29.4599 29.8778 -15.3072 -7.56458 -20.5529 -6.24435 -11.504 0.285748 -2.85096 25.9216 6.02898 15.1366 52.4543 22.0165 7.43642 4.95332 -0.917149 9.38541 1.24666 0.0332704 3.10521 -10.6612 1.35651 5.19326 -4.31725 18.7683 -13.368 13.5294 -13.7212 1.63532 0.0517873 1.20166 -0.519725 -17.3402 -5.1268 -7.73968 -0.000824587 37.0501 -2.89896 -7.36058 -19.8244 -1.28764 4.11134 -15.5457 -5.37061 
14.2155 95.9989 23.1117 9.61038 -4.61128 5.6065 0 0 0 2.25179 -7.6016 1.2794 -17.6056 12.4121 4.79937 5.50444 2.4998 -0.410626 2.50216 -6.18247 0.929251 -36.4013 3.79231 -5.40304 -28.7591 29.8004 -15.0986 -7.71961 -21.3869 -6.58151 -12.3148 0.239523 -2.21832 25.4781 5.88486 14.9396 52.9668 21.7012 7.41775 4.45821 1.24877 9.38629 2.19106 0.0552187 2.87685 -10.721 1.48934 5.32777 -4.62735 18.6148 -13.5796 13.4032 -13.6038 1.60582 0.0763059 1.47064 -0.68108 -17.648 -5.15665 -7.86177 9.38416e-005 37.3314 -3.11351 -7.08712 -20.0765 -1.25571 4.01287 -15.0725 -4.60291 
14.2371 95.9787 23.0263 9.71644 -4.61504 5.6479 0 0 0 2.35614 -7.58523 1.36192 -17.8829 12.4161 4.96365 4.78482 2.98891 -0.321506 2.22259 -6.42428 0.860561 -36.7767 3.80988 -5.36363 -28.3389 29.4431 -15.0632 -7.75455 -21.3573 -6.39802 -11.8226 0.28701 -2.77001 25.2728 5.85073 14.9468 53.2558 21.569 7.22596 4.22395 1.88898 9.6205 2.06347 0.0513323 2.82466 -10.8304 1.47542 5.27942 -4.66098 18.5407 -13.6727 13.6009 -13.4645 1.61301 0.0698477 1.38462 -0.635924 -17.852 -5.18676 -8.21324 -0.000147782 37.3131 -2.45429 -7.47042 -19.5915 -1.29161 4.23294 -16.0864 -5.3444 
14.237 95.9899 22.9128 9.69874 -4.60534 5.77392 0 0 0 2.5884 -7.48681 1.38573 -18.3428 12.3654 5.09559 4.63853 3.34982 -0.487896 1.87894 -6.73074 0.723482 -36.7127 3.79714 -5.34785 -28.2468 28.8729 -15.1988 -7.62514 -21.2231 -6.03313 -11.7721 0.289291 -2.80555 25.354 5.82618 14.826 53.2498 21.6839 7.01746 4.16618 1.66214 10.0027 1.82964 0.0387254 2.38935 -10.7844 1.34343 5.28767 -4.64901 18.6621 -13.672 13.2585 -13.5635 1.58368 0.0663874 1.78509 -0.71312 -17.8089 -5.23336 -8.1064 -3.84668e-005 37.3481 -2.84671 -7.16849 -19.8892 -1.25856 4.08263 -15.3991 -4.94835 
14.1619 95.995 22.8488 9.64353 -4.76522 5.79231 0 0 0 2.78396 -7.26603 1.34152 -18.6008 12.2159 5.07908 4.05608 3.76985 -0.172155 1.73899 -6.72917 0.886757 -36.9357 3.76834 -5.23371 -28.0327 28.8344 -14.9223 -7.64463 -21.7258 -6.25727 -11.8639 0.288427 -2.77541 25.2538 5.86811 15.0114 53.4481 21.447 7.06137 4.2934 1.22034 9.71987 2.16465 0.0610317 3.23635 -10.6519 1.40543 5.39091 -4.66394 18.7966 -13.969 13.3074 -13.5773 1.59063 -0.049874 1.8312 -0.265529 -17.6269 -5.0746 -7.91635 0.000217977 37.2312 -2.65402 -7.14317 -19.6716 -1.23988 4.1744 -15.8488 -5.57365 
14.1057 95.9989 22.7465 9.67788 -4.60682 5.7963 0 0 0 2.48638 -7.48211 1.47811 -18.312 12.3577 5.20676 3.9269 4.10237 -0.462832 1.04242 -6.75594 0.677823 -37.2047 3.81934 -5.29603 -27.6503 28.7953 -15.2346 -7.6659 -21.5304 -5.98164 -11.5913 0.290001 -2.85594 25.2267 5.70336 14.5143 53.2543 21.4868 7.2446 3.94965 2.62599 9.85897 1.84283 0.0432767 2.69944 -10.6935 1.21881 5.26572 -4.64911 18.626 -13.7331 13.6263 -13.2238 1.58603 0.0946565 1.09778 -0.669201 -17.6393 -5.37302 -7.95461 -0.000248806 37.3716 -2.7765 -7.29166 -19.6086 -1.26082 4.16886 -15.7892 -5.35818 
14.0051 96.0358 22.6592 9.61525 -4.45629 5.73265 0 0 0 2.46224 -7.49996 1.41629 -18.1769 12.0655 5.07686 2.94714 4.56705 -0.0625192 1.48185 -6.72306 0.690992 -37.619 3.76867 -5.09482 -27.6499 28.7203 -14.8947 -7.62743 -21.2973 -6.26664 -11.6773 0.313226 -3.06245 24.7207 5.6347 14.5748 53.9504 20.9859 7.41937 3.76337 3.666 9.42733 1.95735 0.0386144 2.23304 -10.602 0.974373 5.22386 -4.54632 18.6721 -13.6183 12.7447 -13.6796 1.53501 0.0640963 2.03677 -0.76336 -17.4465 -5.63866 -7.51752 5.87759e-005 37.4039 -3.65796 -6.49967 -20.0773 -1.15193 3.92427 -14.685 -4.24309 
13.8615 96.009 22.5645 9.64333 -4.42348 5.72468 0 0 0 2.38527 -7.59086 1.61339 -18.4943 12.2291 5.4026 3.74501 4.66247 -0.4655 0.702155 -6.64695 0.688309 -36.8604 3.86669 -5.4768 -28.1678 28.2762 -15.244 -7.43581 -20.6282 -5.76673 -11.5437 0.297356 -2.94176 25.1348 5.6019 14.2468 53.7612 21.4891 7.2146 4.11233 1.58849 10.059 2.2457 0.0588787 3.01173 -10.4294 0.851075 5.38865 -4.77834 18.718 -14.0151 13.239 -13.3703 1.55869 0.024104 1.62763 -0.510613 -17.387 -5.81378 -7.60564 -4.72335e-005 37.525 -3.16702 -6.80189 -19.777 -1.18713 4.05527 -15.3104 -5.47924 
13.7806 95.9893 22.4806 9.80301 -4.34668 5.60197 0 0 0 2.49608 -7.72334 1.67976 -19.0399 12.3262 5.62972 3.72208 4.62046 -0.461119 0.695946 -6.42422 0.683025 -37.0982 3.87771 -5.45168 -27.4069 28.8184 -15.389 -7.57566 -20.9558 -6.18019 -11.6474 0.267329 -2.62067 25.3244 5.63938 14.2612 53.839 21.733 7.34579 4.32854 0.818074 10.058 2.11876 0.0532061 2.89912 -10.5635 0.648255 5.32796 -4.74829 18.8431 -13.7187 12.9544 -13.4939 1.53902 0.0322077 1.71165 -0.56352 -17.5828 -6.12051 -7.62567 -5.79109e-006 37.8759 -3.23537 -6.64782 -20.1238 -1.18085 3.93244 -14.7348 -4.57968 
13.6613 96.0009 22.4164 9.78091 -4.46504 5.63291 0 0 0 2.90187 -7.53313 1.46559 -19.8464 12.1613 5.57504 3.73556 4.79472 -0.344494 1.04856 -6.40343 0.749901 -36.9089 3.81478 -5.34706 -27.1824 29.1552 -15.1161 -7.68998 -21.3634 -6.78155 -11.4943 0.251573 -2.49707 25.6485 5.80328 14.5963 53.795 21.4801 7.61603 4.38544 0.967322 9.6153 2.1713 0.0656194 3.40986 -10.4328 0.684225 5.4556 -4.78455 18.9412 -13.818 12.9354 -13.4996 1.53685 0.0846493 1.69653 -0.769614 -17.4888 -6.05015 -7.58609 0.000490021 37.8641 -3.23679 -6.31558 -20.1434 -1.12279 3.99015 -14.9659 -4.27419 
13.5231 95.9524 22.3258 9.90627 -4.56538 5.5406 0 0 0 2.6643 -7.45521 1.44053 -19.6077 12.1644 5.51361 2.89388 5.25352 -0.0736632 1.45841 -6.67569 0.681422 -37.3391 3.80154 -5.2263 -26.6005 29.4599 -15.2439 -7.90939 -21.632 -6.92184 -11.2198 0.222155 -2.26143 24.9789 5.73578 14.7502 54.3051 21.8095 7.65026 4.09714 2.26882 9.8939 3.25785 0.10898 3.85301 -10.4922 0.748282 5.41814 -4.80646 18.8609 -13.7637 13.4116 -13.1165 1.54878 0.0641106 0.750501 -0.45878 -17.6187 -6.15412 -7.81699 -0.000610652 38.146 -2.87579 -6.65854 -20.0968 -1.1815 4.02505 -15.1284 -4.58445 
13.3749 95.9649 22.2523 10.0367 -4.5866 5.39428 0 0 0 2.52595 -7.46611 1.45935 -19.6777 12.2303 5.58553 2.78938 5.1405 -0.0851907 1.4863 -6.33943 0.621584 -37.4998 3.75501 -5.08682 -26.2385 29.3766 -15.3346 -7.93694 -21.9195 -6.99442 -11.4423 0.233778 -2.33085 24.9049 5.73076 14.7756 54.4268 21.9806 7.89569 4.15954 2.43756 9.72863 2.63776 0.088653 3.82601 -10.542 0.722447 5.38782 -4.77632 18.8484 -13.4075 12.7324 -13.5246 1.51594 0.102269 1.6895 -0.834787 -17.6858 -6.33196 -7.8188 0.000178262 38.3606 -3.03391 -7.23246 -20.3178 -1.29719 3.9722 -14.8815 -4.11122 
13.211 95.9564 22.1816 10.1852 -4.84787 5.19246 0 0 0 2.5185 -7.17459 1.52545 -19.9929 12.1527 5.73014 3.00569 5.37733 -0.0769388 1.32475 -6.27386 0.736201 -37.5853 3.77684 -5.11928 -26.0726 29.3005 -15.1788 -8.21138 -23.2318 -7.33745 -10.751 0.204309 -2.17177 25.1672 5.72239 14.6053 54.3153 22.1417 7.98545 4.32425 1.63832 9.81028 2.65581 0.0755196 3.30323 -10.5777 0.872041 5.45486 -4.78101 18.9699 -13.3839 12.4761 -13.6438 1.49829 0.147129 1.97313 -1.0742 -17.8274 -6.22523 -8.11609 1.33336e-005 38.4124 -2.3259 -7.86488 -19.855 -1.37872 4.19639 -15.8736 -4.69082 
13.0338 95.9702 22.1474 10.1493 -4.90625 5.17445 0 0 0 2.58937 -7.26146 1.47926 -20.0696 12.1473 5.69031 2.44402 5.69686 0.211568 2.0065 -6.03486 0.71886 -37.8368 3.76515 -5.0416 -25.9038 28.9161 -15.0552 -8.14107 -22.8349 -7.2404 -11.1091 0.214429 -2.20559 25.1583 5.68407 14.4907 54.4411 22.5017 7.96279 4.37496 1.60506 9.88022 3.21282 0.0839878 2.74565 -10.4124 0.917688 5.49989 -4.78518 18.9156 -13.3948 12.655 -13.4232 1.4952 0.124035 1.71077 -0.925535 -17.7108 -6.19612 -8.3108 -4.65885e-005 38.4335 -2.13734 -8.24643 -19.7811 -1.44027 4.2058 -15.9102 -4.66723 
12.8012 96.025 22.1117 10.0954 -5.05777 4.94488 0 0 0 2.50979 -7.33605 1.54675 -19.9106 12.2722 5.73368 2.33958 6.13611 0.298204 1.94178 -6.11794 0.791471 -38.0636 3.77738 -5.02375 -25.7247 28.6147 -14.9356 -7.98465 -22.621 -7.31111 -11.1312 0.188224 -1.92683 25.084 5.73978 14.7052 54.5252 22.2991 7.84636 4.13508 2.36529 9.96858 1.01761 0.00985604 1.39587 -10.1159 1.04046 5.77166 -4.93167 18.8766 -13.3457 12.4183 -13.4588 1.47086 0.154082 1.7847 -1.06199 -17.498 -6.08138 -8.22632 7.77196e-005 38.2674 -1.98873 -8.18337 -19.915 -1.43905 4.10095 -15.4614 -4.66915 
12.64 96.028 22.0482 10.1387 -5.06632 4.72418 0 0 0 2.73192 -7.66082 1.53743 -20.2767 12.582 5.88071 2.72356 6.30526 0.0608952 1.49631 -6.16879 0.768878 -38.2312 3.74721 -4.9225 -25.2877 28.635 -15.1737 -8.1706 -23.4164 -7.4271 -10.6978 0.113778 -1.21791 24.9575 5.75083 14.8094 54.4974 22.7119 7.84716 4.09222 2.42588 10.2166 1.76469 0.0362496 2.31925 -10.1128 1.14933 5.69389 -4.93272 18.4951 -13.235 12.6151 -13.136 1.45837 0.111372 1.1517 -0.745428 -17.4628 -6.21306 -8.18388 -0.000139405 38.3026 -1.79482 -8.23597 -19.8504 -1.44362 4.14124 -15.6067 -4.3331 
